<svg xmlns="http://www.w3.org/2000/svg" width="1960.809" height="568.139" viewBox="0 0 1960.809 568.139">
  <g id="_-metaple-analysis-bg" data-name="-metaple-analysis-bg" opacity="0.34">
    <path id="Path_31134" data-name="Path 31134" d="M19.119,59.06H16.472v47.4H1.57v85.931h14.9v19.456h2.647V192.392h14.9V106.461h-14.9Z" transform="translate(13.822 285.524)" fill="#f63b9a" opacity="0.64"/>
    <path id="Path_31135" data-name="Path 31135" d="M23.519,59.06H20.774V80.424H5.97v66h14.8v65.426h2.745V146.422h14.8v-66h-14.8Z" transform="translate(52.56 285.524)" fill="#f63b9a" opacity="0.64"/>
    <path id="Path_31136" data-name="Path 31136" d="M27.909,51.04H25.262v7.821H10.36v94.42h14.9v50.643h2.647V153.28h14.9V58.861h-14.9Z" transform="translate(91.21 217.055)" fill="#f63b9a" opacity="0.64"/>
    <path id="Path_31137" data-name="Path 31137" d="M32.211,39.99H29.564v70.195H14.76V153.2h14.8v87.076h2.647V153.2h14.9V110.185h-14.9Z" transform="translate(129.948 122.717)" fill="#f63b9a" opacity="0.64"/>
    <path id="Path_31138" data-name="Path 31138" d="M36.7,34.47H33.954V60.6H19.15v61.9h14.8v87.743H36.7V122.5H51.5V60.6H36.7Z" transform="translate(168.597 75.591)" fill="#f63b9a" opacity="0.64"/>
    <path id="Path_31139" data-name="Path 31139" d="M41.089,34.65H38.442V49.91H23.54V79.952h14.9V187.438h2.647V79.952h14.9V49.91h-14.9Z" transform="translate(207.247 77.128)" fill="#f63b9a" opacity="0.64"/>
    <path id="Path_31140" data-name="Path 31140" d="M45.489,22.93H42.744V40.479H27.94v150.4h14.8v64.949h2.745V190.883h14.8V40.479h-14.8Z" transform="translate(245.985 -22.93)" fill="#f63b9a" opacity="0.64"/>
    <path id="Path_31141" data-name="Path 31141" d="M49.879,23.97H47.134V61.356H32.33v85.931h14.8v17.453h2.745V147.288h14.8V61.356h-14.8Z" transform="translate(284.635 -14.051)" fill="#f63b9a" opacity="0.64"/>
    <path id="Path_31142" data-name="Path 31142" d="M54.269,27.73H51.622V85.908H36.72V241.366h14.9v26.228h2.647V241.366h14.9V85.908h-14.9Z" transform="translate(323.284 18.049)" fill="#f63b9a" opacity="0.64"/>
    <path id="Path_31143" data-name="Path 31143" d="M58.669,44.35H55.924v9.156H41.12v45.97h14.8V216.213h2.745V99.476h14.8V53.506h-14.8Z" transform="translate(362.022 159.94)" fill="#f63b9a" opacity="0.64"/>
    <path id="Path_31144" data-name="Path 31144" d="M63.059,39.71H60.412V50.2H45.51v68.383h14.9V231.124h2.647V118.584h14.8V50.2h-14.8Z" transform="translate(400.672 120.327)" fill="#f63b9a" opacity="0.64"/>
    <path id="Path_31145" data-name="Path 31145" d="M67.449,35.08H64.8V89.729H49.9V146H64.8v41.869h2.647V146h14.9V89.729h-14.9Z" transform="translate(439.322 80.799)" fill="#f63b9a" opacity="0.64"/>
    <path id="Path_31146" data-name="Path 31146" d="M71.849,38.7H69.1V86.1H54.3v22.031H69.1v83.356h2.745V108.132h14.8V86.1h-14.8Z" transform="translate(478.06 111.704)" fill="#f63b9a" opacity="0.64"/>
    <path id="Path_31147" data-name="Path 31147" d="M76.239,33.25H73.592v91.845H58.69v8.679h14.9v5.341h2.647v-5.341h14.9v-8.679h-14.9Z" transform="translate(516.709 65.175)" fill="#f63b9a" opacity="0.64"/>
    <path id="Path_31148" data-name="Path 31148" d="M80.639,41.73H77.894V58.42H63.09V89.226h14.8v82.879h2.745V89.226h14.8V58.42h-14.8Z" transform="translate(555.447 137.572)" fill="#f63b9a" opacity="0.64"/>
    <path id="Path_31149" data-name="Path 31149" d="M146.539,46.87h-2.647v8.011h-14.9V97.8h14.9v50.262h2.647V97.8h14.9V54.881h-14.9Z" transform="translate(1135.633 181.454)" fill="#f63b9a" opacity="0.64"/>
    <path id="Path_31150" data-name="Path 31150" d="M150.929,45.34h-2.647V61.458h-14.9v53.218h14.9v24.416h2.647V114.676h14.9V61.458h-14.9Z" transform="translate(1174.283 168.392)" fill="#f63b9a" opacity="0.64"/>
    <path id="Path_31151" data-name="Path 31151" d="M155.329,49.65h-2.745V71.3h-14.8v96.9h14.8V196.62h2.745V168.2h14.8V71.3h-14.8Z" transform="translate(1213.021 205.188)" fill="#f63b9a" opacity="0.64"/>
    <path id="Path_31152" data-name="Path 31152" d="M159.719,51.5h-2.647v6.962h-14.9v94.8h14.9v13.448h2.647V153.263h14.9v-94.8h-14.9Z" transform="translate(1251.671 220.982)" fill="#f63b9a" opacity="0.64"/>
    <path id="Path_31153" data-name="Path 31153" d="M164.119,50.12h-2.745V82.929h-14.8v6.962h14.8v12.685h2.745V89.891h14.8V82.929h-14.8Z" transform="translate(1290.409 209.2)" fill="#f63b9a" opacity="0.64"/>
    <path id="Path_31154" data-name="Path 31154" d="M168.509,39.87h-2.745V111.5h-14.8v85.931h14.8v7.916h2.745v-7.916h14.8V111.5h-14.8Z" transform="translate(1329.058 121.692)" fill="#f63b9a" opacity="0.64"/>
    <path id="Path_31155" data-name="Path 31155" d="M172.9,46.92h-2.647V76.1h-14.9V86.881h14.9v21.078H172.9V86.881h14.9V76.1H172.9Z" transform="translate(1367.708 181.881)" fill="#f63b9a" opacity="0.64"/>
    <path id="Path_31156" data-name="Path 31156" d="M177.019,31.44h-2.647V43.076h-14.9V235.348h14.9v6.009h2.647v-6.009h14.9V43.076h-14.9Z" transform="translate(1403.981 49.723)" fill="#f63b9a" opacity="0.64"/>
    <path id="Path_31157" data-name="Path 31157" d="M181.379,23.28h-2.647v70.1h-14.9v34.811h14.9v101h2.647v-101h14.8V93.379h-14.8Z" transform="translate(1442.366 -19.942)" fill="#f63b9a" opacity="0.64"/>
    <path id="Path_31158" data-name="Path 31158" d="M185.769,27.72h-2.647V81.8h-14.9V90.38h14.9v31.664h2.647V90.38h14.9V81.8h-14.9Z" transform="translate(1481.016 17.964)" fill="#f63b9a" opacity="0.64"/>
    <path id="Path_31159" data-name="Path 31159" d="M190.169,31.26h-2.745V48.809h-14.8v74.582h14.8v78.588h2.745V123.391h14.8V48.809h-14.8Z" transform="translate(1519.754 48.186)" fill="#f63b9a" opacity="0.28"/>
    <path id="Path_31160" data-name="Path 31160" d="M194.559,35.74h-2.647V94.967h-14.9v67.238h14.9v20.124h2.647V162.205h14.9V94.967h-14.9Z" transform="translate(1558.404 86.433)" fill="#f63b9a" opacity="0.64"/>
    <path id="Path_31161" data-name="Path 31161" d="M198.959,46.28h-2.745V66.118h-14.8V230.732h14.8v160.99h2.745V230.732h14.8V66.118h-14.8Z" transform="translate(1597.141 176.417)" fill="#f63b9a" opacity="0.64"/>
    <path id="Path_31162" data-name="Path 31162" d="M203.349,58.44H200.6v61.42H185.8v29.947h14.8v61.421h2.745V149.808h14.8V119.86h-14.8Z" transform="translate(1635.791 280.231)" fill="#f63b9a" opacity="0.64"/>
    <path id="Path_31163" data-name="Path 31163" d="M207.739,55.4h-2.647V78.766h-14.9v53.028h14.9V257.019h2.647V131.794h14.9V78.766h-14.9Z" transform="translate(1674.441 254.277)" fill="#f63b9a" opacity="0.64"/>
    <path id="Path_31164" data-name="Path 31164" d="M212.139,59.04h-2.745v8.965h-14.8V179.21h14.8v12.112h2.745V179.21h14.8V68.005h-14.8Z" transform="translate(1713.179 285.353)" fill="#f63b9a" opacity="0.64"/>
    <path id="Path_31165" data-name="Path 31165" d="M1960.809,314.738c-22.843-53.7-46.863-107.963-77.844-147.829-74.9-96.518-181.277-96.613-257.356-79.732-34.314,7.63-68.726,19.075-102.06,30.233-53.04,17.739-107.943,36.051-162.845,38.817-47.255,2.384-96.178-6.39-143.433-14.878-86.276-15.45-175.492-31.569-255.885,21.554-15.2,10.014-30.1,22.6-44.51,34.811-25.1,21.268-51.079,43.2-79.217,51.883-58.726,17.93-116.57-22.508-172.453-61.707-5.686-3.91-11.275-7.916-16.863-11.731C556.772,113.024,460.1,68.961,361.279,45.308c-47.746-11.445-102.844-18.5-149.414,15.927-38.236,28.326-66.079,80.781-93.04,131.52-11.863,22.413-24.118,45.493-37.157,66.285C57.942,296.9,28.334,324.276,0,335.816v1.908c28.922-11.54,59.118-39.389,83.138-77.729,13.039-20.887,25.392-44.062,37.255-66.475C147.257,142.971,175,90.706,212.944,62.666c45.883-33.953,100.491-26.991,147.845-15.641,98.629,23.653,195,67.524,286.474,130.566,5.588,3.815,11.177,7.821,16.863,11.731,56.275,39.389,114.511,80.209,174.12,61.9,28.628-8.774,54.707-30.9,79.9-52.265,14.314-12.112,29.216-24.7,44.314-34.716,79.707-52.646,168.532-36.719,254.513-21.268,47.354,8.488,96.374,17.358,143.825,14.878,55.2-2.861,110.2-21.173,163.335-38.912,33.334-11.159,67.746-22.6,101.962-30.233,75.491-16.786,181.179-16.6,255.4,79.065,31.569,40.724,55.981,96.518,79.315,151.453Z" transform="translate(0 87.833)" fill="#f63b9a" opacity="0.64"/>
    <path id="Path_31166" data-name="Path 31166" d="M1960.809,50.281c-42.157-1.812-88.825,5.15-140.492,20.982-27.451,8.393-55.2,18.6-82.06,28.326-68.138,24.892-138.433,50.548-209.12,50.548-1.961,0-4.02,0-5.981-.1-18.824-.381-38.04-2.67-56.569-4.864-28.04-3.338-56.961-6.772-85.491-3.815-36.569,3.91-72.648,18.312-107.453,32.332-26.569,10.682-54.118,21.65-81.57,27.944-86.57,19.647-174.708-7.153-259.807-33-69.707-21.173-141.766-43.2-213.238-39.961-69.02,3.052-137.257,29.375-203.238,54.84-37.451,14.5-76.275,29.47-114.707,39.961C268.239,259.912,132.355,246.369,0,229.106v1.812c70.981,9.251,142.845,17.453,214.807,17.453,62.452,0,124.805-6.2,186.571-23.08,38.628-10.586,77.354-25.56,114.9-40.057C582.164,159.77,650.2,133.542,718.93,130.49q6.912-.286,13.824-.286c66.668,0,133.727,20.41,198.728,40.152,85.393,26.037,173.728,52.837,260.788,33.095,27.647-6.295,55.2-17.358,81.864-28.04,34.8-13.924,70.687-28.326,106.962-32.236,28.334-3.052,57.158.477,85.1,3.815,18.628,2.194,37.746,4.483,56.766,4.864,1.961,0,4.02.1,5.98.1,70.982,0,141.571-25.751,209.807-50.643,26.863-9.823,54.608-19.933,81.962-28.326,51.472-15.832,97.943-22.7,140-20.982V50.281Z" transform="translate(0 208.181)" fill="#f63b9a" opacity="0.64"/>
  </g>
</svg>
